<mxfile host="app.diagrams.net" modified="2023-08-25T04:37:52.299Z" agent="Mozilla/5.0 (Windows NT 10.0; Win64; x64) AppleWebKit/537.36 (KHTML, like Gecko) Chrome/116.0.0.0 Safari/537.36" etag="SHoRFbfQ0hIDxYtkb-dD" version="21.3.2" type="github" pages="11">
  <diagram name="Page-1" id="DWlXJ4pS48vFZ1wjVlmi">
    <mxGraphModel dx="2219" dy="960" grid="1" gridSize="10" guides="1" tooltips="1" connect="1" arrows="1" fold="1" page="1" pageScale="1" pageWidth="850" pageHeight="1100" math="0" shadow="0">
      <root>
        <mxCell id="0" />
        <mxCell id="1" parent="0" />
        <mxCell id="RnomdoA-0kcSTNcBKQc0-1" value="" style="edgeStyle=orthogonalEdgeStyle;rounded=0;orthogonalLoop=1;jettySize=auto;html=1;fontFamily=Garamond;fontStyle=1" edge="1" parent="1" source="RnomdoA-0kcSTNcBKQc0-2" target="RnomdoA-0kcSTNcBKQc0-4">
          <mxGeometry relative="1" as="geometry" />
        </mxCell>
        <mxCell id="RnomdoA-0kcSTNcBKQc0-2" value="Start" style="strokeWidth=2;html=1;shape=mxgraph.flowchart.terminator;whiteSpace=wrap;fontFamily=Garamond;fontStyle=1" vertex="1" parent="1">
          <mxGeometry x="444" y="140" width="100" height="60" as="geometry" />
        </mxCell>
        <mxCell id="RnomdoA-0kcSTNcBKQc0-3" value="" style="edgeStyle=orthogonalEdgeStyle;rounded=0;orthogonalLoop=1;jettySize=auto;html=1;fontFamily=Garamond;fontStyle=1" edge="1" parent="1" source="RnomdoA-0kcSTNcBKQc0-4" target="RnomdoA-0kcSTNcBKQc0-6">
          <mxGeometry relative="1" as="geometry" />
        </mxCell>
        <mxCell id="RnomdoA-0kcSTNcBKQc0-4" value="Input Number of Elements (Max:50)" style="shape=parallelogram;perimeter=parallelogramPerimeter;whiteSpace=wrap;html=1;fixedSize=1;strokeWidth=2;fontFamily=Garamond;fontStyle=1" vertex="1" parent="1">
          <mxGeometry x="379" y="230" width="230" height="40" as="geometry" />
        </mxCell>
        <mxCell id="RnomdoA-0kcSTNcBKQc0-21" style="edgeStyle=orthogonalEdgeStyle;rounded=0;orthogonalLoop=1;jettySize=auto;html=1;" edge="1" parent="1" source="RnomdoA-0kcSTNcBKQc0-6" target="RnomdoA-0kcSTNcBKQc0-10">
          <mxGeometry relative="1" as="geometry" />
        </mxCell>
        <mxCell id="RnomdoA-0kcSTNcBKQc0-6" value="Read the number of elements from the user" style="rounded=1;whiteSpace=wrap;html=1;strokeWidth=2;fontFamily=Garamond;fontStyle=1" vertex="1" parent="1">
          <mxGeometry x="350" y="300" width="290" height="40" as="geometry" />
        </mxCell>
        <mxCell id="RnomdoA-0kcSTNcBKQc0-13" style="edgeStyle=orthogonalEdgeStyle;rounded=0;orthogonalLoop=1;jettySize=auto;html=1;" edge="1" parent="1" source="RnomdoA-0kcSTNcBKQc0-10" target="RnomdoA-0kcSTNcBKQc0-4">
          <mxGeometry relative="1" as="geometry">
            <mxPoint x="290" y="280" as="targetPoint" />
            <Array as="points">
              <mxPoint x="290" y="425" />
              <mxPoint x="290" y="250" />
            </Array>
          </mxGeometry>
        </mxCell>
        <mxCell id="RnomdoA-0kcSTNcBKQc0-52" style="edgeStyle=orthogonalEdgeStyle;rounded=0;orthogonalLoop=1;jettySize=auto;html=1;entryX=0.433;entryY=-0.01;entryDx=0;entryDy=0;entryPerimeter=0;" edge="1" parent="1" source="RnomdoA-0kcSTNcBKQc0-10" target="RnomdoA-0kcSTNcBKQc0-22">
          <mxGeometry relative="1" as="geometry" />
        </mxCell>
        <mxCell id="RnomdoA-0kcSTNcBKQc0-10" value="if user input == 1 || &amp;lt;= 50" style="rhombus;whiteSpace=wrap;html=1;" vertex="1" parent="1">
          <mxGeometry x="417" y="380" width="156" height="90" as="geometry" />
        </mxCell>
        <mxCell id="RnomdoA-0kcSTNcBKQc0-14" value="No" style="text;html=1;align=center;verticalAlign=middle;resizable=0;points=[];autosize=1;strokeColor=none;fillColor=none;" vertex="1" parent="1">
          <mxGeometry x="330" y="400" width="40" height="30" as="geometry" />
        </mxCell>
        <mxCell id="RnomdoA-0kcSTNcBKQc0-24" style="edgeStyle=orthogonalEdgeStyle;rounded=0;orthogonalLoop=1;jettySize=auto;html=1;" edge="1" parent="1" source="RnomdoA-0kcSTNcBKQc0-22" target="RnomdoA-0kcSTNcBKQc0-25">
          <mxGeometry relative="1" as="geometry">
            <mxPoint x="502" y="710" as="targetPoint" />
          </mxGeometry>
        </mxCell>
        <mxCell id="RnomdoA-0kcSTNcBKQc0-22" value="The Number of elements will be looped (User Choice)" style="whiteSpace=wrap;html=1;aspect=fixed;" vertex="1" parent="1">
          <mxGeometry x="450" y="550" width="104" height="104" as="geometry" />
        </mxCell>
        <mxCell id="RnomdoA-0kcSTNcBKQc0-45" style="edgeStyle=orthogonalEdgeStyle;rounded=0;orthogonalLoop=1;jettySize=auto;html=1;entryX=0.524;entryY=-0.025;entryDx=0;entryDy=0;entryPerimeter=0;" edge="1" parent="1" source="RnomdoA-0kcSTNcBKQc0-25" target="RnomdoA-0kcSTNcBKQc0-28">
          <mxGeometry relative="1" as="geometry">
            <mxPoint x="680" y="830" as="targetPoint" />
            <Array as="points">
              <mxPoint x="682" y="770" />
            </Array>
          </mxGeometry>
        </mxCell>
        <mxCell id="RnomdoA-0kcSTNcBKQc0-46" style="edgeStyle=orthogonalEdgeStyle;rounded=0;orthogonalLoop=1;jettySize=auto;html=1;entryX=0.479;entryY=0.025;entryDx=0;entryDy=0;entryPerimeter=0;" edge="1" parent="1" source="RnomdoA-0kcSTNcBKQc0-25" target="RnomdoA-0kcSTNcBKQc0-47">
          <mxGeometry relative="1" as="geometry">
            <mxPoint x="330" y="820" as="targetPoint" />
            <Array as="points">
              <mxPoint x="389" y="770" />
              <mxPoint x="389" y="771" />
              <mxPoint x="329" y="771" />
            </Array>
          </mxGeometry>
        </mxCell>
        <mxCell id="RnomdoA-0kcSTNcBKQc0-25" value="is element == 1?" style="rhombus;whiteSpace=wrap;html=1;" vertex="1" parent="1">
          <mxGeometry x="448" y="720" width="108" height="100" as="geometry" />
        </mxCell>
        <mxCell id="RnomdoA-0kcSTNcBKQc0-50" style="edgeStyle=orthogonalEdgeStyle;rounded=0;orthogonalLoop=1;jettySize=auto;html=1;entryX=1;entryY=0.5;entryDx=0;entryDy=0;" edge="1" parent="1" source="RnomdoA-0kcSTNcBKQc0-28" target="RnomdoA-0kcSTNcBKQc0-30">
          <mxGeometry relative="1" as="geometry">
            <mxPoint x="675" y="1020" as="targetPoint" />
            <Array as="points">
              <mxPoint x="676" y="1012" />
            </Array>
          </mxGeometry>
        </mxCell>
        <mxCell id="RnomdoA-0kcSTNcBKQc0-28" value="Display UniqueElement" style="rounded=1;whiteSpace=wrap;html=1;strokeWidth=2;fontFamily=Garamond;fontStyle=1" vertex="1" parent="1">
          <mxGeometry x="530" y="840" width="290" height="40" as="geometry" />
        </mxCell>
        <mxCell id="RnomdoA-0kcSTNcBKQc0-35" value="" style="edgeStyle=orthogonalEdgeStyle;rounded=0;orthogonalLoop=1;jettySize=auto;html=1;" edge="1" parent="1" source="RnomdoA-0kcSTNcBKQc0-30" target="RnomdoA-0kcSTNcBKQc0-34">
          <mxGeometry relative="1" as="geometry" />
        </mxCell>
        <mxCell id="RnomdoA-0kcSTNcBKQc0-30" value="loop ends" style="whiteSpace=wrap;html=1;aspect=fixed;" vertex="1" parent="1">
          <mxGeometry x="444" y="960" width="104" height="104" as="geometry" />
        </mxCell>
        <mxCell id="RnomdoA-0kcSTNcBKQc0-32" value="No" style="text;html=1;align=center;verticalAlign=middle;resizable=0;points=[];autosize=1;strokeColor=none;fillColor=none;" vertex="1" parent="1">
          <mxGeometry x="370" y="738" width="40" height="30" as="geometry" />
        </mxCell>
        <mxCell id="RnomdoA-0kcSTNcBKQc0-33" value="Yes" style="text;html=1;align=center;verticalAlign=middle;resizable=0;points=[];autosize=1;strokeColor=none;fillColor=none;" vertex="1" parent="1">
          <mxGeometry x="580" y="738" width="40" height="30" as="geometry" />
        </mxCell>
        <mxCell id="RnomdoA-0kcSTNcBKQc0-36" style="edgeStyle=orthogonalEdgeStyle;rounded=0;orthogonalLoop=1;jettySize=auto;html=1;" edge="1" parent="1" source="RnomdoA-0kcSTNcBKQc0-34" target="RnomdoA-0kcSTNcBKQc0-37">
          <mxGeometry relative="1" as="geometry">
            <mxPoint x="610" y="1310" as="targetPoint" />
            <Array as="points">
              <mxPoint x="610" y="1177" />
            </Array>
          </mxGeometry>
        </mxCell>
        <mxCell id="RnomdoA-0kcSTNcBKQc0-39" style="edgeStyle=orthogonalEdgeStyle;rounded=0;orthogonalLoop=1;jettySize=auto;html=1;entryX=0.44;entryY=-0.036;entryDx=0;entryDy=0;entryPerimeter=0;" edge="1" parent="1" source="RnomdoA-0kcSTNcBKQc0-34" target="RnomdoA-0kcSTNcBKQc0-38">
          <mxGeometry relative="1" as="geometry" />
        </mxCell>
        <mxCell id="RnomdoA-0kcSTNcBKQc0-34" value="DuplicateElement Found?" style="rhombus;whiteSpace=wrap;html=1;" vertex="1" parent="1">
          <mxGeometry x="435" y="1126" width="122" height="94" as="geometry" />
        </mxCell>
        <mxCell id="RnomdoA-0kcSTNcBKQc0-43" style="edgeStyle=orthogonalEdgeStyle;rounded=0;orthogonalLoop=1;jettySize=auto;html=1;entryX=1;entryY=0.5;entryDx=0;entryDy=0;entryPerimeter=0;" edge="1" parent="1" source="RnomdoA-0kcSTNcBKQc0-37" target="RnomdoA-0kcSTNcBKQc0-44">
          <mxGeometry relative="1" as="geometry">
            <mxPoint x="610" y="1430" as="targetPoint" />
            <Array as="points">
              <mxPoint x="610" y="1420" />
            </Array>
          </mxGeometry>
        </mxCell>
        <mxCell id="RnomdoA-0kcSTNcBKQc0-37" value="Display Duplicates" style="rounded=1;whiteSpace=wrap;html=1;" vertex="1" parent="1">
          <mxGeometry x="550" y="1280" width="120" height="60" as="geometry" />
        </mxCell>
        <mxCell id="RnomdoA-0kcSTNcBKQc0-42" style="edgeStyle=orthogonalEdgeStyle;rounded=0;orthogonalLoop=1;jettySize=auto;html=1;entryX=0;entryY=0.5;entryDx=0;entryDy=0;entryPerimeter=0;" edge="1" parent="1" source="RnomdoA-0kcSTNcBKQc0-38" target="RnomdoA-0kcSTNcBKQc0-44">
          <mxGeometry relative="1" as="geometry">
            <mxPoint x="365" y="1430" as="targetPoint" />
            <Array as="points">
              <mxPoint x="365" y="1420" />
            </Array>
          </mxGeometry>
        </mxCell>
        <mxCell id="RnomdoA-0kcSTNcBKQc0-38" value="No Duplicate" style="rounded=1;whiteSpace=wrap;html=1;" vertex="1" parent="1">
          <mxGeometry x="305" y="1280" width="120" height="60" as="geometry" />
        </mxCell>
        <mxCell id="RnomdoA-0kcSTNcBKQc0-40" value="No" style="text;html=1;align=center;verticalAlign=middle;resizable=0;points=[];autosize=1;strokeColor=none;fillColor=none;" vertex="1" parent="1">
          <mxGeometry x="379" y="1150" width="40" height="30" as="geometry" />
        </mxCell>
        <mxCell id="RnomdoA-0kcSTNcBKQc0-41" value="Yes" style="text;html=1;align=center;verticalAlign=middle;resizable=0;points=[];autosize=1;strokeColor=none;fillColor=none;" vertex="1" parent="1">
          <mxGeometry x="562" y="1158" width="40" height="30" as="geometry" />
        </mxCell>
        <mxCell id="RnomdoA-0kcSTNcBKQc0-44" value="End" style="strokeWidth=2;html=1;shape=mxgraph.flowchart.terminator;whiteSpace=wrap;fontFamily=Garamond;fontStyle=1" vertex="1" parent="1">
          <mxGeometry x="425" y="1390" width="100" height="60" as="geometry" />
        </mxCell>
        <mxCell id="RnomdoA-0kcSTNcBKQc0-51" style="edgeStyle=orthogonalEdgeStyle;rounded=0;orthogonalLoop=1;jettySize=auto;html=1;entryX=0;entryY=0.5;entryDx=0;entryDy=0;" edge="1" parent="1" source="RnomdoA-0kcSTNcBKQc0-47" target="RnomdoA-0kcSTNcBKQc0-30">
          <mxGeometry relative="1" as="geometry">
            <mxPoint x="335" y="1010" as="targetPoint" />
            <Array as="points">
              <mxPoint x="336" y="1012" />
            </Array>
          </mxGeometry>
        </mxCell>
        <mxCell id="RnomdoA-0kcSTNcBKQc0-47" value="Display Duplicate Element" style="rounded=1;whiteSpace=wrap;html=1;strokeWidth=2;fontFamily=Garamond;fontStyle=1" vertex="1" parent="1">
          <mxGeometry x="190" y="840" width="290" height="40" as="geometry" />
        </mxCell>
        <mxCell id="RnomdoA-0kcSTNcBKQc0-53" value="Yes" style="text;html=1;align=center;verticalAlign=middle;resizable=0;points=[];autosize=1;strokeColor=none;fillColor=none;" vertex="1" parent="1">
          <mxGeometry x="490" y="480" width="40" height="30" as="geometry" />
        </mxCell>
      </root>
    </mxGraphModel>
  </diagram>
  <diagram name="Page-2" id="bYdcWPTMfjMCpdUWC3Bk">
    <mxGraphModel dx="1038" dy="571" grid="1" gridSize="10" guides="1" tooltips="1" connect="1" arrows="1" fold="1" page="1" pageScale="1" pageWidth="827" pageHeight="1169" math="0" shadow="0">
      <root>
        <mxCell id="0" />
        <mxCell id="1" parent="0" />
        <mxCell id="j0sXW7riptVhVCH6T9g7-3" value="" style="edgeStyle=orthogonalEdgeStyle;rounded=0;orthogonalLoop=1;jettySize=auto;html=1;fontFamily=Garamond;fontStyle=1" parent="1" source="j0sXW7riptVhVCH6T9g7-1" target="j0sXW7riptVhVCH6T9g7-2" edge="1">
          <mxGeometry relative="1" as="geometry" />
        </mxCell>
        <mxCell id="j0sXW7riptVhVCH6T9g7-1" value="Start" style="strokeWidth=2;html=1;shape=mxgraph.flowchart.terminator;whiteSpace=wrap;fontFamily=Garamond;fontStyle=1" parent="1" vertex="1">
          <mxGeometry x="314" y="50" width="100" height="50" as="geometry" />
        </mxCell>
        <mxCell id="j0sXW7riptVhVCH6T9g7-5" value="" style="edgeStyle=orthogonalEdgeStyle;rounded=0;orthogonalLoop=1;jettySize=auto;html=1;fontFamily=Garamond;fontStyle=1" parent="1" source="j0sXW7riptVhVCH6T9g7-2" target="j0sXW7riptVhVCH6T9g7-4" edge="1">
          <mxGeometry relative="1" as="geometry" />
        </mxCell>
        <mxCell id="j0sXW7riptVhVCH6T9g7-2" value="Input Grade" style="rounded=1;whiteSpace=wrap;html=1;fontFamily=Garamond;strokeWidth=2;fontStyle=1" parent="1" vertex="1">
          <mxGeometry x="304" y="140" width="120" height="45" as="geometry" />
        </mxCell>
        <mxCell id="j0sXW7riptVhVCH6T9g7-6" style="edgeStyle=orthogonalEdgeStyle;rounded=0;orthogonalLoop=1;jettySize=auto;html=1;exitX=1;exitY=0.5;exitDx=0;exitDy=0;fontFamily=Garamond;fontStyle=1" parent="1" source="j0sXW7riptVhVCH6T9g7-4" edge="1">
          <mxGeometry relative="1" as="geometry">
            <mxPoint x="520" y="320" as="targetPoint" />
            <Array as="points">
              <mxPoint x="520" y="288" />
            </Array>
          </mxGeometry>
        </mxCell>
        <mxCell id="j0sXW7riptVhVCH6T9g7-7" style="edgeStyle=orthogonalEdgeStyle;rounded=0;orthogonalLoop=1;jettySize=auto;html=1;exitX=0;exitY=0.5;exitDx=0;exitDy=0;fontFamily=Garamond;fontStyle=1" parent="1" source="j0sXW7riptVhVCH6T9g7-4" target="j0sXW7riptVhVCH6T9g7-8" edge="1">
          <mxGeometry relative="1" as="geometry">
            <mxPoint x="240" y="320" as="targetPoint" />
            <Array as="points">
              <mxPoint x="250" y="288" />
              <mxPoint x="250" y="288" />
            </Array>
          </mxGeometry>
        </mxCell>
        <mxCell id="j0sXW7riptVhVCH6T9g7-4" value="Grade &amp;gt;=75%" style="rhombus;whiteSpace=wrap;html=1;fontFamily=Garamond;rounded=1;strokeWidth=2;fontStyle=1" parent="1" vertex="1">
          <mxGeometry x="306" y="247.5" width="116" height="80" as="geometry" />
        </mxCell>
        <mxCell id="j0sXW7riptVhVCH6T9g7-8" value="Print &quot;Failed&quot;" style="shape=parallelogram;html=1;strokeWidth=2;perimeter=parallelogramPerimeter;whiteSpace=wrap;rounded=1;arcSize=12;size=0.23;fontFamily=Garamond;fontStyle=1" parent="1" vertex="1">
          <mxGeometry x="190" y="320" width="100" height="30" as="geometry" />
        </mxCell>
        <mxCell id="j0sXW7riptVhVCH6T9g7-9" value="Print &quot;Passed" style="shape=parallelogram;html=1;strokeWidth=2;perimeter=parallelogramPerimeter;whiteSpace=wrap;rounded=1;arcSize=12;size=0.23;fontFamily=Garamond;fontStyle=1" parent="1" vertex="1">
          <mxGeometry x="460" y="320" width="100" height="30" as="geometry" />
        </mxCell>
        <mxCell id="j0sXW7riptVhVCH6T9g7-10" value="No" style="text;html=1;align=center;verticalAlign=middle;resizable=0;points=[];autosize=1;strokeColor=none;fillColor=none;fontFamily=Garamond;fontStyle=1" parent="1" vertex="1">
          <mxGeometry x="250" y="260" width="40" height="30" as="geometry" />
        </mxCell>
        <mxCell id="j0sXW7riptVhVCH6T9g7-11" value="Yes" style="text;html=1;align=center;verticalAlign=middle;resizable=0;points=[];autosize=1;strokeColor=none;fillColor=none;fontFamily=Garamond;fontStyle=1" parent="1" vertex="1">
          <mxGeometry x="440" y="255" width="40" height="30" as="geometry" />
        </mxCell>
      </root>
    </mxGraphModel>
  </diagram>
  <diagram name="Page-3" id="IvqjupsoqmPVZ-8K_-sZ">
    <mxGraphModel dx="1038" dy="571" grid="1" gridSize="10" guides="1" tooltips="1" connect="1" arrows="1" fold="1" page="1" pageScale="1" pageWidth="827" pageHeight="1169" math="0" shadow="0">
      <root>
        <mxCell id="0" />
        <mxCell id="1" parent="0" />
        <mxCell id="rmrDt5kIy9N0dJzy8chX-3" value="" style="edgeStyle=orthogonalEdgeStyle;rounded=0;orthogonalLoop=1;jettySize=auto;html=1;fontFamily=Garamond;fontStyle=1" parent="1" source="rmrDt5kIy9N0dJzy8chX-1" target="rmrDt5kIy9N0dJzy8chX-2" edge="1">
          <mxGeometry relative="1" as="geometry" />
        </mxCell>
        <mxCell id="rmrDt5kIy9N0dJzy8chX-1" value="Start" style="strokeWidth=2;html=1;shape=mxgraph.flowchart.terminator;whiteSpace=wrap;fontFamily=Garamond;fontStyle=1" parent="1" vertex="1">
          <mxGeometry x="300" y="30" width="100" height="40" as="geometry" />
        </mxCell>
        <mxCell id="rmrDt5kIy9N0dJzy8chX-5" value="" style="edgeStyle=orthogonalEdgeStyle;rounded=0;orthogonalLoop=1;jettySize=auto;html=1;fontFamily=Garamond;fontStyle=1" parent="1" source="rmrDt5kIy9N0dJzy8chX-2" target="rmrDt5kIy9N0dJzy8chX-4" edge="1">
          <mxGeometry relative="1" as="geometry" />
        </mxCell>
        <mxCell id="rmrDt5kIy9N0dJzy8chX-2" value="Enter Color get cc" style="shape=parallelogram;perimeter=parallelogramPerimeter;whiteSpace=wrap;html=1;fixedSize=1;fontFamily=Garamond;strokeWidth=2;fontStyle=1" parent="1" vertex="1">
          <mxGeometry x="290" y="90" width="120" height="20" as="geometry" />
        </mxCell>
        <mxCell id="rmrDt5kIy9N0dJzy8chX-7" value="" style="edgeStyle=orthogonalEdgeStyle;rounded=0;orthogonalLoop=1;jettySize=auto;html=1;fontFamily=Garamond;fontStyle=1" parent="1" source="rmrDt5kIy9N0dJzy8chX-4" target="rmrDt5kIy9N0dJzy8chX-6" edge="1">
          <mxGeometry relative="1" as="geometry" />
        </mxCell>
        <mxCell id="rmrDt5kIy9N0dJzy8chX-4" value="b=&quot;blue&quot;, r=&quot;red&quot;, g=&quot;green&quot;, y=&quot;yellow&quot; and p=&quot;pink&quot;" style="shape=parallelogram;perimeter=parallelogramPerimeter;whiteSpace=wrap;html=1;fixedSize=1;fontFamily=Garamond;strokeWidth=2;fontStyle=1" parent="1" vertex="1">
          <mxGeometry x="275" y="130" width="150" height="50" as="geometry" />
        </mxCell>
        <mxCell id="rmrDt5kIy9N0dJzy8chX-9" value="" style="edgeStyle=orthogonalEdgeStyle;rounded=0;orthogonalLoop=1;jettySize=auto;html=1;fontFamily=Garamond;fontStyle=1" parent="1" source="rmrDt5kIy9N0dJzy8chX-6" target="rmrDt5kIy9N0dJzy8chX-8" edge="1">
          <mxGeometry relative="1" as="geometry" />
        </mxCell>
        <mxCell id="rmrDt5kIy9N0dJzy8chX-18" style="edgeStyle=orthogonalEdgeStyle;rounded=0;orthogonalLoop=1;jettySize=auto;html=1;exitX=1;exitY=0.5;exitDx=0;exitDy=0;fontFamily=Garamond;fontStyle=1" parent="1" source="rmrDt5kIy9N0dJzy8chX-6" edge="1">
          <mxGeometry relative="1" as="geometry">
            <mxPoint x="450" y="223" as="targetPoint" />
          </mxGeometry>
        </mxCell>
        <mxCell id="rmrDt5kIy9N0dJzy8chX-6" value="if cc==&#39;B&quot;" style="rhombus;whiteSpace=wrap;html=1;fontFamily=Garamond;strokeWidth=2;fontStyle=1" parent="1" vertex="1">
          <mxGeometry x="310" y="200" width="80" height="45" as="geometry" />
        </mxCell>
        <mxCell id="rmrDt5kIy9N0dJzy8chX-11" value="" style="edgeStyle=orthogonalEdgeStyle;rounded=0;orthogonalLoop=1;jettySize=auto;html=1;fontFamily=Garamond;fontStyle=1" parent="1" source="rmrDt5kIy9N0dJzy8chX-8" target="rmrDt5kIy9N0dJzy8chX-10" edge="1">
          <mxGeometry relative="1" as="geometry" />
        </mxCell>
        <mxCell id="rmrDt5kIy9N0dJzy8chX-20" style="edgeStyle=orthogonalEdgeStyle;rounded=0;orthogonalLoop=1;jettySize=auto;html=1;exitX=1;exitY=0.5;exitDx=0;exitDy=0;fontFamily=Garamond;fontStyle=1" parent="1" source="rmrDt5kIy9N0dJzy8chX-8" edge="1">
          <mxGeometry relative="1" as="geometry">
            <mxPoint x="440" y="293" as="targetPoint" />
          </mxGeometry>
        </mxCell>
        <mxCell id="rmrDt5kIy9N0dJzy8chX-8" value="if cc==&#39;R&quot;" style="rhombus;whiteSpace=wrap;html=1;fontFamily=Garamond;strokeWidth=2;fontStyle=1" parent="1" vertex="1">
          <mxGeometry x="310" y="270" width="80" height="45" as="geometry" />
        </mxCell>
        <mxCell id="rmrDt5kIy9N0dJzy8chX-13" value="" style="edgeStyle=orthogonalEdgeStyle;rounded=0;orthogonalLoop=1;jettySize=auto;html=1;fontFamily=Garamond;fontStyle=1" parent="1" source="rmrDt5kIy9N0dJzy8chX-10" target="rmrDt5kIy9N0dJzy8chX-12" edge="1">
          <mxGeometry relative="1" as="geometry" />
        </mxCell>
        <mxCell id="rmrDt5kIy9N0dJzy8chX-22" style="edgeStyle=orthogonalEdgeStyle;rounded=0;orthogonalLoop=1;jettySize=auto;html=1;exitX=1;exitY=0.5;exitDx=0;exitDy=0;fontFamily=Garamond;fontStyle=1" parent="1" source="rmrDt5kIy9N0dJzy8chX-10" edge="1">
          <mxGeometry relative="1" as="geometry">
            <mxPoint x="440" y="363" as="targetPoint" />
          </mxGeometry>
        </mxCell>
        <mxCell id="rmrDt5kIy9N0dJzy8chX-10" value="if cc==&#39;G&quot;" style="rhombus;whiteSpace=wrap;html=1;fontFamily=Garamond;strokeWidth=2;fontStyle=1" parent="1" vertex="1">
          <mxGeometry x="310" y="340" width="80" height="45" as="geometry" />
        </mxCell>
        <mxCell id="rmrDt5kIy9N0dJzy8chX-15" value="" style="edgeStyle=orthogonalEdgeStyle;rounded=0;orthogonalLoop=1;jettySize=auto;html=1;fontFamily=Garamond;fontStyle=1" parent="1" source="rmrDt5kIy9N0dJzy8chX-12" target="rmrDt5kIy9N0dJzy8chX-14" edge="1">
          <mxGeometry relative="1" as="geometry" />
        </mxCell>
        <mxCell id="rmrDt5kIy9N0dJzy8chX-25" value="" style="edgeStyle=orthogonalEdgeStyle;rounded=0;orthogonalLoop=1;jettySize=auto;html=1;fontFamily=Garamond;fontStyle=1" parent="1" source="rmrDt5kIy9N0dJzy8chX-12" edge="1">
          <mxGeometry relative="1" as="geometry">
            <mxPoint x="470" y="432.5" as="targetPoint" />
          </mxGeometry>
        </mxCell>
        <mxCell id="rmrDt5kIy9N0dJzy8chX-12" value="if cc==&#39;Y&quot;" style="rhombus;whiteSpace=wrap;html=1;fontFamily=Garamond;strokeWidth=2;fontStyle=1" parent="1" vertex="1">
          <mxGeometry x="310" y="410" width="80" height="45" as="geometry" />
        </mxCell>
        <mxCell id="rmrDt5kIy9N0dJzy8chX-17" value="" style="edgeStyle=orthogonalEdgeStyle;rounded=0;orthogonalLoop=1;jettySize=auto;html=1;fontFamily=Garamond;fontStyle=1" parent="1" source="rmrDt5kIy9N0dJzy8chX-14" target="rmrDt5kIy9N0dJzy8chX-16" edge="1">
          <mxGeometry relative="1" as="geometry" />
        </mxCell>
        <mxCell id="rmrDt5kIy9N0dJzy8chX-27" style="edgeStyle=orthogonalEdgeStyle;rounded=0;orthogonalLoop=1;jettySize=auto;html=1;exitX=1;exitY=0.5;exitDx=0;exitDy=0;fontFamily=Garamond;fontStyle=1" parent="1" source="rmrDt5kIy9N0dJzy8chX-14" edge="1">
          <mxGeometry relative="1" as="geometry">
            <mxPoint x="440" y="503" as="targetPoint" />
          </mxGeometry>
        </mxCell>
        <mxCell id="rmrDt5kIy9N0dJzy8chX-14" value="if cc==&#39;P&quot;" style="rhombus;whiteSpace=wrap;html=1;fontFamily=Garamond;strokeWidth=2;fontStyle=1" parent="1" vertex="1">
          <mxGeometry x="310" y="480" width="80" height="45" as="geometry" />
        </mxCell>
        <mxCell id="rmrDt5kIy9N0dJzy8chX-47" style="edgeStyle=orthogonalEdgeStyle;rounded=0;orthogonalLoop=1;jettySize=auto;html=1;exitX=0.5;exitY=1;exitDx=0;exitDy=0;fontFamily=Garamond;fontStyle=1" parent="1" source="rmrDt5kIy9N0dJzy8chX-16" edge="1">
          <mxGeometry relative="1" as="geometry">
            <mxPoint x="350" y="640" as="targetPoint" />
          </mxGeometry>
        </mxCell>
        <mxCell id="rmrDt5kIy9N0dJzy8chX-16" value="&quot;invalid&quot;" style="rhombus;whiteSpace=wrap;html=1;fontFamily=Garamond;strokeWidth=2;fontStyle=1" parent="1" vertex="1">
          <mxGeometry x="310" y="550" width="80" height="45" as="geometry" />
        </mxCell>
        <mxCell id="rmrDt5kIy9N0dJzy8chX-40" style="edgeStyle=orthogonalEdgeStyle;rounded=0;orthogonalLoop=1;jettySize=auto;html=1;exitX=1;exitY=0.5;exitDx=0;exitDy=0;fontFamily=Garamond;fontStyle=1" parent="1" source="rmrDt5kIy9N0dJzy8chX-19" edge="1">
          <mxGeometry relative="1" as="geometry">
            <mxPoint x="350" y="620" as="targetPoint" />
            <Array as="points">
              <mxPoint x="680" y="223" />
            </Array>
          </mxGeometry>
        </mxCell>
        <mxCell id="rmrDt5kIy9N0dJzy8chX-19" value="Print &quot;Blue&quot;" style="shape=parallelogram;perimeter=parallelogramPerimeter;whiteSpace=wrap;html=1;fixedSize=1;fontFamily=Garamond;strokeWidth=2;fontStyle=1" parent="1" vertex="1">
          <mxGeometry x="440" y="212.5" width="120" height="20" as="geometry" />
        </mxCell>
        <mxCell id="rmrDt5kIy9N0dJzy8chX-41" style="edgeStyle=orthogonalEdgeStyle;rounded=0;orthogonalLoop=1;jettySize=auto;html=1;exitX=1;exitY=0.5;exitDx=0;exitDy=0;fontFamily=Garamond;fontStyle=1" parent="1" source="rmrDt5kIy9N0dJzy8chX-21" edge="1">
          <mxGeometry relative="1" as="geometry">
            <mxPoint x="680" y="293" as="targetPoint" />
          </mxGeometry>
        </mxCell>
        <mxCell id="rmrDt5kIy9N0dJzy8chX-21" value="Print &quot;Red&quot;" style="shape=parallelogram;perimeter=parallelogramPerimeter;whiteSpace=wrap;html=1;fixedSize=1;fontFamily=Garamond;strokeWidth=2;fontStyle=1" parent="1" vertex="1">
          <mxGeometry x="430" y="282.5" width="120" height="20" as="geometry" />
        </mxCell>
        <mxCell id="rmrDt5kIy9N0dJzy8chX-42" style="edgeStyle=orthogonalEdgeStyle;rounded=0;orthogonalLoop=1;jettySize=auto;html=1;exitX=1;exitY=0.5;exitDx=0;exitDy=0;fontFamily=Garamond;fontStyle=1" parent="1" source="rmrDt5kIy9N0dJzy8chX-23" edge="1">
          <mxGeometry relative="1" as="geometry">
            <mxPoint x="680" y="363" as="targetPoint" />
          </mxGeometry>
        </mxCell>
        <mxCell id="rmrDt5kIy9N0dJzy8chX-23" value="Print &quot;Green&quot;" style="shape=parallelogram;perimeter=parallelogramPerimeter;whiteSpace=wrap;html=1;fixedSize=1;fontFamily=Garamond;strokeWidth=2;fontStyle=1" parent="1" vertex="1">
          <mxGeometry x="430" y="352.5" width="120" height="20" as="geometry" />
        </mxCell>
        <mxCell id="rmrDt5kIy9N0dJzy8chX-43" style="edgeStyle=orthogonalEdgeStyle;rounded=0;orthogonalLoop=1;jettySize=auto;html=1;exitX=1;exitY=0.5;exitDx=0;exitDy=0;fontFamily=Garamond;fontStyle=1" parent="1" source="rmrDt5kIy9N0dJzy8chX-26" edge="1">
          <mxGeometry relative="1" as="geometry">
            <mxPoint x="680" y="433" as="targetPoint" />
          </mxGeometry>
        </mxCell>
        <mxCell id="rmrDt5kIy9N0dJzy8chX-26" value="Print &quot;Yellow&quot;" style="shape=parallelogram;perimeter=parallelogramPerimeter;whiteSpace=wrap;html=1;fixedSize=1;fontFamily=Garamond;strokeWidth=2;fontStyle=1" parent="1" vertex="1">
          <mxGeometry x="430" y="422.5" width="120" height="20" as="geometry" />
        </mxCell>
        <mxCell id="rmrDt5kIy9N0dJzy8chX-44" style="edgeStyle=orthogonalEdgeStyle;rounded=0;orthogonalLoop=1;jettySize=auto;html=1;exitX=1;exitY=0.5;exitDx=0;exitDy=0;fontFamily=Garamond;fontStyle=1" parent="1" source="rmrDt5kIy9N0dJzy8chX-28" edge="1">
          <mxGeometry relative="1" as="geometry">
            <mxPoint x="680" y="503" as="targetPoint" />
          </mxGeometry>
        </mxCell>
        <mxCell id="rmrDt5kIy9N0dJzy8chX-28" value="Print &quot;Pink&quot;" style="shape=parallelogram;perimeter=parallelogramPerimeter;whiteSpace=wrap;html=1;fixedSize=1;fontFamily=Garamond;strokeWidth=2;fontStyle=1" parent="1" vertex="1">
          <mxGeometry x="430" y="492.5" width="120" height="20" as="geometry" />
        </mxCell>
        <mxCell id="rmrDt5kIy9N0dJzy8chX-29" value="Yes" style="text;html=1;align=center;verticalAlign=middle;resizable=0;points=[];autosize=1;strokeColor=none;fillColor=none;fontFamily=Garamond;fontStyle=1" parent="1" vertex="1">
          <mxGeometry x="390" y="205" width="40" height="30" as="geometry" />
        </mxCell>
        <mxCell id="rmrDt5kIy9N0dJzy8chX-30" value="Yes" style="text;html=1;align=center;verticalAlign=middle;resizable=0;points=[];autosize=1;strokeColor=none;fillColor=none;fontFamily=Garamond;fontStyle=1" parent="1" vertex="1">
          <mxGeometry x="380" y="265" width="40" height="30" as="geometry" />
        </mxCell>
        <mxCell id="rmrDt5kIy9N0dJzy8chX-31" value="Yes" style="text;html=1;align=center;verticalAlign=middle;resizable=0;points=[];autosize=1;strokeColor=none;fillColor=none;fontFamily=Garamond;fontStyle=1" parent="1" vertex="1">
          <mxGeometry x="380" y="335" width="40" height="30" as="geometry" />
        </mxCell>
        <mxCell id="rmrDt5kIy9N0dJzy8chX-32" value="Yes" style="text;html=1;align=center;verticalAlign=middle;resizable=0;points=[];autosize=1;strokeColor=none;fillColor=none;fontFamily=Garamond;fontStyle=1" parent="1" vertex="1">
          <mxGeometry x="390" y="405" width="40" height="30" as="geometry" />
        </mxCell>
        <mxCell id="rmrDt5kIy9N0dJzy8chX-33" value="Yes" style="text;html=1;align=center;verticalAlign=middle;resizable=0;points=[];autosize=1;strokeColor=none;fillColor=none;fontFamily=Garamond;fontStyle=1" parent="1" vertex="1">
          <mxGeometry x="390" y="485" width="40" height="30" as="geometry" />
        </mxCell>
        <mxCell id="rmrDt5kIy9N0dJzy8chX-35" value="No" style="text;html=1;align=center;verticalAlign=middle;resizable=0;points=[];autosize=1;strokeColor=none;fillColor=none;fontFamily=Garamond;fontStyle=1" parent="1" vertex="1">
          <mxGeometry x="320" y="235" width="40" height="30" as="geometry" />
        </mxCell>
        <mxCell id="rmrDt5kIy9N0dJzy8chX-36" value="No" style="text;html=1;align=center;verticalAlign=middle;resizable=0;points=[];autosize=1;strokeColor=none;fillColor=none;fontFamily=Garamond;fontStyle=1" parent="1" vertex="1">
          <mxGeometry x="320" y="305" width="40" height="30" as="geometry" />
        </mxCell>
        <mxCell id="rmrDt5kIy9N0dJzy8chX-37" value="No" style="text;html=1;align=center;verticalAlign=middle;resizable=0;points=[];autosize=1;strokeColor=none;fillColor=none;fontFamily=Garamond;fontStyle=1" parent="1" vertex="1">
          <mxGeometry x="320" y="375" width="40" height="30" as="geometry" />
        </mxCell>
        <mxCell id="rmrDt5kIy9N0dJzy8chX-38" value="No" style="text;html=1;align=center;verticalAlign=middle;resizable=0;points=[];autosize=1;strokeColor=none;fillColor=none;fontFamily=Garamond;fontStyle=1" parent="1" vertex="1">
          <mxGeometry x="320" y="445" width="40" height="30" as="geometry" />
        </mxCell>
        <mxCell id="rmrDt5kIy9N0dJzy8chX-39" value="No" style="text;html=1;align=center;verticalAlign=middle;resizable=0;points=[];autosize=1;strokeColor=none;fillColor=none;fontFamily=Garamond;fontStyle=1" parent="1" vertex="1">
          <mxGeometry x="320" y="515" width="40" height="30" as="geometry" />
        </mxCell>
        <mxCell id="rmrDt5kIy9N0dJzy8chX-49" value="End" style="strokeWidth=2;html=1;shape=mxgraph.flowchart.terminator;whiteSpace=wrap;fontFamily=Garamond;fontStyle=1" parent="1" vertex="1">
          <mxGeometry x="300" y="640" width="100" height="60" as="geometry" />
        </mxCell>
      </root>
    </mxGraphModel>
  </diagram>
  <diagram name="Page-4" id="_THHfm2L1NEgIlRCqBZj">
    <mxGraphModel dx="1038" dy="571" grid="1" gridSize="10" guides="1" tooltips="1" connect="1" arrows="1" fold="1" page="1" pageScale="1" pageWidth="827" pageHeight="1169" math="0" shadow="0">
      <root>
        <mxCell id="0" />
        <mxCell id="1" parent="0" />
        <mxCell id="7cQ_i3UWmtvaQM5XyIDQ-3" value="" style="edgeStyle=orthogonalEdgeStyle;rounded=0;orthogonalLoop=1;jettySize=auto;html=1;" parent="1" source="7cQ_i3UWmtvaQM5XyIDQ-1" edge="1">
          <mxGeometry relative="1" as="geometry">
            <mxPoint x="414" y="140" as="targetPoint" />
          </mxGeometry>
        </mxCell>
        <mxCell id="7cQ_i3UWmtvaQM5XyIDQ-1" value="Start" style="strokeWidth=2;html=1;shape=mxgraph.flowchart.terminator;whiteSpace=wrap;" parent="1" vertex="1">
          <mxGeometry x="364" y="80" width="100" height="40" as="geometry" />
        </mxCell>
        <mxCell id="7cQ_i3UWmtvaQM5XyIDQ-7" value="" style="edgeStyle=orthogonalEdgeStyle;rounded=0;orthogonalLoop=1;jettySize=auto;html=1;" parent="1" source="7cQ_i3UWmtvaQM5XyIDQ-5" target="7cQ_i3UWmtvaQM5XyIDQ-6" edge="1">
          <mxGeometry relative="1" as="geometry" />
        </mxCell>
        <mxCell id="7cQ_i3UWmtvaQM5XyIDQ-5" value="num1 = 0;&lt;br&gt;num2 = 0;&lt;br&gt;sum = 0;" style="shape=hexagon;perimeter=hexagonPerimeter2;whiteSpace=wrap;html=1;fixedSize=1;" parent="1" vertex="1">
          <mxGeometry x="354" y="140" width="120" height="60" as="geometry" />
        </mxCell>
        <mxCell id="7cQ_i3UWmtvaQM5XyIDQ-9" value="" style="edgeStyle=orthogonalEdgeStyle;rounded=0;orthogonalLoop=1;jettySize=auto;html=1;" parent="1" source="7cQ_i3UWmtvaQM5XyIDQ-6" target="7cQ_i3UWmtvaQM5XyIDQ-8" edge="1">
          <mxGeometry relative="1" as="geometry" />
        </mxCell>
        <mxCell id="7cQ_i3UWmtvaQM5XyIDQ-6" value="INPUT num1, &lt;br&gt;num2" style="shape=parallelogram;perimeter=parallelogramPerimeter;whiteSpace=wrap;html=1;fixedSize=1;" parent="1" vertex="1">
          <mxGeometry x="354" y="220" width="120" height="60" as="geometry" />
        </mxCell>
        <mxCell id="7cQ_i3UWmtvaQM5XyIDQ-11" value="" style="edgeStyle=orthogonalEdgeStyle;rounded=0;orthogonalLoop=1;jettySize=auto;html=1;" parent="1" source="7cQ_i3UWmtvaQM5XyIDQ-8" target="7cQ_i3UWmtvaQM5XyIDQ-10" edge="1">
          <mxGeometry relative="1" as="geometry" />
        </mxCell>
        <mxCell id="7cQ_i3UWmtvaQM5XyIDQ-8" value="&amp;nbsp;sum = num1 + num 2" style="rounded=0;whiteSpace=wrap;html=1;" parent="1" vertex="1">
          <mxGeometry x="354" y="300" width="120" height="60" as="geometry" />
        </mxCell>
        <mxCell id="7cQ_i3UWmtvaQM5XyIDQ-13" value="" style="edgeStyle=orthogonalEdgeStyle;rounded=0;orthogonalLoop=1;jettySize=auto;html=1;" parent="1" source="7cQ_i3UWmtvaQM5XyIDQ-10" target="7cQ_i3UWmtvaQM5XyIDQ-12" edge="1">
          <mxGeometry relative="1" as="geometry" />
        </mxCell>
        <mxCell id="7cQ_i3UWmtvaQM5XyIDQ-10" value="OUTPUT sum" style="shape=parallelogram;perimeter=parallelogramPerimeter;whiteSpace=wrap;html=1;fixedSize=1;" parent="1" vertex="1">
          <mxGeometry x="354" y="390" width="120" height="60" as="geometry" />
        </mxCell>
        <mxCell id="7cQ_i3UWmtvaQM5XyIDQ-12" value="End" style="strokeWidth=2;html=1;shape=mxgraph.flowchart.terminator;whiteSpace=wrap;" parent="1" vertex="1">
          <mxGeometry x="364" y="480" width="100" height="40" as="geometry" />
        </mxCell>
      </root>
    </mxGraphModel>
  </diagram>
  <diagram name="Page-6" id="rSC6ZR3C4sMtBJngpUzt">
    <mxGraphModel dx="1038" dy="571" grid="1" gridSize="10" guides="1" tooltips="1" connect="1" arrows="1" fold="1" page="1" pageScale="1" pageWidth="827" pageHeight="1169" math="0" shadow="0">
      <root>
        <mxCell id="0" />
        <mxCell id="1" parent="0" />
        <mxCell id="J6AXAsFBVuoWRnp-qtnS-1" value="" style="edgeStyle=orthogonalEdgeStyle;rounded=0;orthogonalLoop=1;jettySize=auto;html=1;" parent="1" source="J6AXAsFBVuoWRnp-qtnS-2" edge="1">
          <mxGeometry relative="1" as="geometry">
            <mxPoint x="414" y="140" as="targetPoint" />
          </mxGeometry>
        </mxCell>
        <mxCell id="J6AXAsFBVuoWRnp-qtnS-2" value="Start" style="strokeWidth=2;html=1;shape=mxgraph.flowchart.terminator;whiteSpace=wrap;" parent="1" vertex="1">
          <mxGeometry x="364" y="80" width="100" height="40" as="geometry" />
        </mxCell>
        <mxCell id="J6AXAsFBVuoWRnp-qtnS-3" value="" style="edgeStyle=orthogonalEdgeStyle;rounded=0;orthogonalLoop=1;jettySize=auto;html=1;" parent="1" source="J6AXAsFBVuoWRnp-qtnS-4" target="J6AXAsFBVuoWRnp-qtnS-6" edge="1">
          <mxGeometry relative="1" as="geometry" />
        </mxCell>
        <mxCell id="J6AXAsFBVuoWRnp-qtnS-4" value="num1 = 0;&lt;br&gt;num2 = 0;&lt;br&gt;ave = 0;" style="shape=hexagon;perimeter=hexagonPerimeter2;whiteSpace=wrap;html=1;fixedSize=1;" parent="1" vertex="1">
          <mxGeometry x="354" y="140" width="120" height="60" as="geometry" />
        </mxCell>
        <mxCell id="J6AXAsFBVuoWRnp-qtnS-14" value="" style="edgeStyle=orthogonalEdgeStyle;rounded=0;orthogonalLoop=1;jettySize=auto;html=1;" parent="1" source="J6AXAsFBVuoWRnp-qtnS-6" target="J6AXAsFBVuoWRnp-qtnS-13" edge="1">
          <mxGeometry relative="1" as="geometry" />
        </mxCell>
        <mxCell id="J6AXAsFBVuoWRnp-qtnS-6" value="INPUT num1, &lt;br&gt;num2" style="shape=parallelogram;perimeter=parallelogramPerimeter;whiteSpace=wrap;html=1;fixedSize=1;" parent="1" vertex="1">
          <mxGeometry x="354" y="220" width="120" height="60" as="geometry" />
        </mxCell>
        <mxCell id="J6AXAsFBVuoWRnp-qtnS-7" value="" style="edgeStyle=orthogonalEdgeStyle;rounded=0;orthogonalLoop=1;jettySize=auto;html=1;" parent="1" target="J6AXAsFBVuoWRnp-qtnS-13" edge="1">
          <mxGeometry relative="1" as="geometry">
            <mxPoint x="414" y="360" as="sourcePoint" />
          </mxGeometry>
        </mxCell>
        <mxCell id="J6AXAsFBVuoWRnp-qtnS-9" value="" style="edgeStyle=orthogonalEdgeStyle;rounded=0;orthogonalLoop=1;jettySize=auto;html=1;" parent="1" source="J6AXAsFBVuoWRnp-qtnS-10" target="J6AXAsFBVuoWRnp-qtnS-11" edge="1">
          <mxGeometry relative="1" as="geometry" />
        </mxCell>
        <mxCell id="J6AXAsFBVuoWRnp-qtnS-10" value="OUTPUT ave" style="shape=parallelogram;perimeter=parallelogramPerimeter;whiteSpace=wrap;html=1;fixedSize=1;" parent="1" vertex="1">
          <mxGeometry x="354" y="400" width="120" height="60" as="geometry" />
        </mxCell>
        <mxCell id="J6AXAsFBVuoWRnp-qtnS-11" value="End" style="strokeWidth=2;html=1;shape=mxgraph.flowchart.terminator;whiteSpace=wrap;" parent="1" vertex="1">
          <mxGeometry x="364" y="480" width="100" height="40" as="geometry" />
        </mxCell>
        <mxCell id="J6AXAsFBVuoWRnp-qtnS-12" value="" style="edgeStyle=orthogonalEdgeStyle;rounded=0;orthogonalLoop=1;jettySize=auto;html=1;" parent="1" source="J6AXAsFBVuoWRnp-qtnS-13" target="J6AXAsFBVuoWRnp-qtnS-10" edge="1">
          <mxGeometry relative="1" as="geometry" />
        </mxCell>
        <mxCell id="J6AXAsFBVuoWRnp-qtnS-13" value="ave = (num1 +num2) /2" style="rounded=0;whiteSpace=wrap;html=1;" parent="1" vertex="1">
          <mxGeometry x="354" y="310" width="120" height="60" as="geometry" />
        </mxCell>
      </root>
    </mxGraphModel>
  </diagram>
  <diagram name="Page-7" id="t-9Jax2Z2BB6sGnmTgAS">
    <mxGraphModel dx="1038" dy="1740" grid="1" gridSize="10" guides="1" tooltips="1" connect="1" arrows="1" fold="1" page="1" pageScale="1" pageWidth="827" pageHeight="1169" math="0" shadow="0">
      <root>
        <mxCell id="0" />
        <mxCell id="1" parent="0" />
        <mxCell id="YztXdEiLpjbQkKMp_52a-14" style="edgeStyle=orthogonalEdgeStyle;rounded=0;orthogonalLoop=1;jettySize=auto;html=1;exitX=0.5;exitY=1;exitDx=0;exitDy=0;exitPerimeter=0;entryX=0.5;entryY=0;entryDx=0;entryDy=0;" parent="1" source="64feHqV_7lI1zegBF64_-1" target="YztXdEiLpjbQkKMp_52a-13" edge="1">
          <mxGeometry relative="1" as="geometry" />
        </mxCell>
        <mxCell id="64feHqV_7lI1zegBF64_-1" value="Start" style="strokeWidth=2;html=1;shape=mxgraph.flowchart.terminator;whiteSpace=wrap;" parent="1" vertex="1">
          <mxGeometry x="340" width="100" height="40" as="geometry" />
        </mxCell>
        <mxCell id="64feHqV_7lI1zegBF64_-7" value="" style="edgeStyle=orthogonalEdgeStyle;rounded=0;orthogonalLoop=1;jettySize=auto;html=1;" parent="1" source="64feHqV_7lI1zegBF64_-4" target="64feHqV_7lI1zegBF64_-6" edge="1">
          <mxGeometry relative="1" as="geometry" />
        </mxCell>
        <mxCell id="64feHqV_7lI1zegBF64_-4" value="INPUT num" style="shape=parallelogram;perimeter=parallelogramPerimeter;whiteSpace=wrap;html=1;fixedSize=1;strokeWidth=2;" parent="1" vertex="1">
          <mxGeometry x="330" y="170" width="120" height="60" as="geometry" />
        </mxCell>
        <mxCell id="YztXdEiLpjbQkKMp_52a-1" style="edgeStyle=orthogonalEdgeStyle;rounded=0;orthogonalLoop=1;jettySize=auto;html=1;exitX=0;exitY=0.5;exitDx=0;exitDy=0;" parent="1" source="64feHqV_7lI1zegBF64_-6" target="YztXdEiLpjbQkKMp_52a-2" edge="1">
          <mxGeometry relative="1" as="geometry">
            <mxPoint x="280" y="330" as="targetPoint" />
            <Array as="points">
              <mxPoint x="280" y="290" />
              <mxPoint x="280" y="290" />
            </Array>
          </mxGeometry>
        </mxCell>
        <mxCell id="YztXdEiLpjbQkKMp_52a-4" style="edgeStyle=orthogonalEdgeStyle;rounded=0;orthogonalLoop=1;jettySize=auto;html=1;exitX=1;exitY=0.5;exitDx=0;exitDy=0;" parent="1" source="64feHqV_7lI1zegBF64_-6" edge="1">
          <mxGeometry relative="1" as="geometry">
            <mxPoint x="530" y="320" as="targetPoint" />
            <Array as="points">
              <mxPoint x="530" y="290" />
              <mxPoint x="530" y="290" />
            </Array>
          </mxGeometry>
        </mxCell>
        <mxCell id="64feHqV_7lI1zegBF64_-6" value="is num even?" style="rhombus;whiteSpace=wrap;html=1;strokeWidth=2;" parent="1" vertex="1">
          <mxGeometry x="325" y="250" width="130" height="80" as="geometry" />
        </mxCell>
        <mxCell id="YztXdEiLpjbQkKMp_52a-10" style="edgeStyle=orthogonalEdgeStyle;rounded=0;orthogonalLoop=1;jettySize=auto;html=1;entryX=0.5;entryY=0;entryDx=0;entryDy=0;entryPerimeter=0;" parent="1" source="YztXdEiLpjbQkKMp_52a-2" target="YztXdEiLpjbQkKMp_52a-9" edge="1">
          <mxGeometry relative="1" as="geometry">
            <mxPoint x="390" y="480" as="targetPoint" />
            <Array as="points">
              <mxPoint x="280" y="480" />
              <mxPoint x="390" y="480" />
            </Array>
          </mxGeometry>
        </mxCell>
        <mxCell id="YztXdEiLpjbQkKMp_52a-2" value="PRINT &quot;Even&quot;" style="shape=parallelogram;html=1;strokeWidth=2;perimeter=parallelogramPerimeter;whiteSpace=wrap;rounded=1;arcSize=12;size=0.23;" parent="1" vertex="1">
          <mxGeometry x="230" y="330" width="100" height="60" as="geometry" />
        </mxCell>
        <mxCell id="YztXdEiLpjbQkKMp_52a-3" value="Yes" style="text;html=1;align=center;verticalAlign=middle;resizable=0;points=[];autosize=1;strokeColor=none;fillColor=none;" parent="1" vertex="1">
          <mxGeometry x="280" y="265" width="40" height="30" as="geometry" />
        </mxCell>
        <mxCell id="YztXdEiLpjbQkKMp_52a-6" value="No" style="text;html=1;align=center;verticalAlign=middle;resizable=0;points=[];autosize=1;strokeColor=none;fillColor=none;" parent="1" vertex="1">
          <mxGeometry x="450" y="265" width="40" height="30" as="geometry" />
        </mxCell>
        <mxCell id="YztXdEiLpjbQkKMp_52a-18" style="edgeStyle=orthogonalEdgeStyle;rounded=0;orthogonalLoop=1;jettySize=auto;html=1;entryX=0.5;entryY=0;entryDx=0;entryDy=0;entryPerimeter=0;" parent="1" source="YztXdEiLpjbQkKMp_52a-7" target="YztXdEiLpjbQkKMp_52a-9" edge="1">
          <mxGeometry relative="1" as="geometry">
            <mxPoint x="390" y="480" as="targetPoint" />
            <Array as="points">
              <mxPoint x="530" y="480" />
              <mxPoint x="390" y="480" />
            </Array>
          </mxGeometry>
        </mxCell>
        <mxCell id="YztXdEiLpjbQkKMp_52a-7" value="PRINT &quot;Odd&quot;" style="shape=parallelogram;perimeter=parallelogramPerimeter;whiteSpace=wrap;html=1;fixedSize=1;strokeWidth=2;" parent="1" vertex="1">
          <mxGeometry x="470" y="320" width="120" height="60" as="geometry" />
        </mxCell>
        <mxCell id="YztXdEiLpjbQkKMp_52a-9" value="END" style="strokeWidth=2;html=1;shape=mxgraph.flowchart.terminator;whiteSpace=wrap;" parent="1" vertex="1">
          <mxGeometry x="340" y="490" width="100" height="60" as="geometry" />
        </mxCell>
        <mxCell id="YztXdEiLpjbQkKMp_52a-12" style="edgeStyle=orthogonalEdgeStyle;rounded=0;orthogonalLoop=1;jettySize=auto;html=1;exitX=0.5;exitY=1;exitDx=0;exitDy=0;exitPerimeter=0;" parent="1" source="64feHqV_7lI1zegBF64_-1" target="64feHqV_7lI1zegBF64_-1" edge="1">
          <mxGeometry relative="1" as="geometry" />
        </mxCell>
        <mxCell id="YztXdEiLpjbQkKMp_52a-16" style="edgeStyle=orthogonalEdgeStyle;rounded=0;orthogonalLoop=1;jettySize=auto;html=1;exitX=0.5;exitY=1;exitDx=0;exitDy=0;entryX=0.5;entryY=0;entryDx=0;entryDy=0;" parent="1" source="YztXdEiLpjbQkKMp_52a-13" target="64feHqV_7lI1zegBF64_-4" edge="1">
          <mxGeometry relative="1" as="geometry" />
        </mxCell>
        <mxCell id="YztXdEiLpjbQkKMp_52a-13" value="num = 0;" style="shape=hexagon;perimeter=hexagonPerimeter2;whiteSpace=wrap;html=1;fixedSize=1;" parent="1" vertex="1">
          <mxGeometry x="330" y="60" width="120" height="80" as="geometry" />
        </mxCell>
      </root>
    </mxGraphModel>
  </diagram>
  <diagram name="Page-5" id="eK19wlt0zBq_MFZdhSEb">
    <mxGraphModel dx="1038" dy="571" grid="1" gridSize="10" guides="1" tooltips="1" connect="1" arrows="1" fold="1" page="1" pageScale="1" pageWidth="827" pageHeight="1169" math="0" shadow="0">
      <root>
        <mxCell id="0" />
        <mxCell id="1" parent="0" />
        <mxCell id="Oi9H_BQ139GcyU55TUwL-5" style="edgeStyle=orthogonalEdgeStyle;rounded=0;orthogonalLoop=1;jettySize=auto;html=1;exitX=0.5;exitY=1;exitDx=0;exitDy=0;exitPerimeter=0;entryX=0.5;entryY=0;entryDx=0;entryDy=0;" parent="1" source="kIPfcpKxW2dWIfp8FQWO-2" target="kIPfcpKxW2dWIfp8FQWO-6" edge="1">
          <mxGeometry relative="1" as="geometry" />
        </mxCell>
        <mxCell id="kIPfcpKxW2dWIfp8FQWO-2" value="Start" style="strokeWidth=2;html=1;shape=mxgraph.flowchart.terminator;whiteSpace=wrap;" parent="1" vertex="1">
          <mxGeometry x="374" y="70" width="100" height="60" as="geometry" />
        </mxCell>
        <mxCell id="Oi9H_BQ139GcyU55TUwL-6" style="edgeStyle=orthogonalEdgeStyle;rounded=0;orthogonalLoop=1;jettySize=auto;html=1;exitX=0.5;exitY=1;exitDx=0;exitDy=0;" parent="1" source="kIPfcpKxW2dWIfp8FQWO-6" target="kIPfcpKxW2dWIfp8FQWO-8" edge="1">
          <mxGeometry relative="1" as="geometry" />
        </mxCell>
        <mxCell id="kIPfcpKxW2dWIfp8FQWO-6" value="INPUT x, y" style="shape=parallelogram;perimeter=parallelogramPerimeter;whiteSpace=wrap;html=1;fixedSize=1;" parent="1" vertex="1">
          <mxGeometry x="364" y="170" width="120" height="30" as="geometry" />
        </mxCell>
        <mxCell id="kIPfcpKxW2dWIfp8FQWO-7" value="" style="edgeStyle=orthogonalEdgeStyle;rounded=0;orthogonalLoop=1;jettySize=auto;html=1;" parent="1" source="kIPfcpKxW2dWIfp8FQWO-8" target="kIPfcpKxW2dWIfp8FQWO-11" edge="1">
          <mxGeometry relative="1" as="geometry" />
        </mxCell>
        <mxCell id="kIPfcpKxW2dWIfp8FQWO-8" value="sum = x + y,&lt;br&gt;product = x * y" style="rounded=0;whiteSpace=wrap;html=1;" parent="1" vertex="1">
          <mxGeometry x="364" y="250" width="120" height="60" as="geometry" />
        </mxCell>
        <mxCell id="kIPfcpKxW2dWIfp8FQWO-9" value="" style="edgeStyle=orthogonalEdgeStyle;rounded=0;orthogonalLoop=1;jettySize=auto;html=1;" parent="1" source="kIPfcpKxW2dWIfp8FQWO-11" target="kIPfcpKxW2dWIfp8FQWO-13" edge="1">
          <mxGeometry relative="1" as="geometry" />
        </mxCell>
        <mxCell id="kIPfcpKxW2dWIfp8FQWO-11" value="if sum &amp;gt; product" style="rhombus;whiteSpace=wrap;html=1;rounded=0;" parent="1" vertex="1">
          <mxGeometry x="384" y="340" width="80" height="80" as="geometry" />
        </mxCell>
        <mxCell id="gOZiMjXKDivMsizB_Nk1-5" style="edgeStyle=orthogonalEdgeStyle;rounded=0;orthogonalLoop=1;jettySize=auto;html=1;exitX=0.5;exitY=1;exitDx=0;exitDy=0;entryX=0.5;entryY=0;entryDx=0;entryDy=0;entryPerimeter=0;" parent="1" source="kIPfcpKxW2dWIfp8FQWO-13" target="gOZiMjXKDivMsizB_Nk1-3" edge="1">
          <mxGeometry relative="1" as="geometry">
            <mxPoint x="410" y="670" as="targetPoint" />
            <Array as="points">
              <mxPoint x="259" y="670" />
              <mxPoint x="424" y="670" />
            </Array>
          </mxGeometry>
        </mxCell>
        <mxCell id="kIPfcpKxW2dWIfp8FQWO-13" value="PRINT &quot;SUM&quot;" style="shape=parallelogram;perimeter=parallelogramPerimeter;whiteSpace=wrap;html=1;fixedSize=1;rounded=0;" parent="1" vertex="1">
          <mxGeometry x="199" y="430" width="120" height="60" as="geometry" />
        </mxCell>
        <mxCell id="kIPfcpKxW2dWIfp8FQWO-14" value="" style="edgeStyle=orthogonalEdgeStyle;rounded=0;orthogonalLoop=1;jettySize=auto;html=1;" parent="1" source="kIPfcpKxW2dWIfp8FQWO-16" target="kIPfcpKxW2dWIfp8FQWO-18" edge="1">
          <mxGeometry relative="1" as="geometry" />
        </mxCell>
        <mxCell id="kIPfcpKxW2dWIfp8FQWO-15" value="" style="edgeStyle=orthogonalEdgeStyle;rounded=0;orthogonalLoop=1;jettySize=auto;html=1;" parent="1" source="kIPfcpKxW2dWIfp8FQWO-16" target="kIPfcpKxW2dWIfp8FQWO-20" edge="1">
          <mxGeometry relative="1" as="geometry" />
        </mxCell>
        <mxCell id="gOZiMjXKDivMsizB_Nk1-6" style="edgeStyle=orthogonalEdgeStyle;rounded=0;orthogonalLoop=1;jettySize=auto;html=1;exitX=0.5;exitY=1;exitDx=0;exitDy=0;entryX=0.5;entryY=0;entryDx=0;entryDy=0;entryPerimeter=0;" parent="1" source="kIPfcpKxW2dWIfp8FQWO-18" target="gOZiMjXKDivMsizB_Nk1-3" edge="1">
          <mxGeometry relative="1" as="geometry" />
        </mxCell>
        <mxCell id="kIPfcpKxW2dWIfp8FQWO-18" value="PRINT &quot;PRODUCT&quot;" style="shape=parallelogram;perimeter=parallelogramPerimeter;whiteSpace=wrap;html=1;fixedSize=1;" parent="1" vertex="1">
          <mxGeometry x="344.5" y="550" width="159" height="60" as="geometry" />
        </mxCell>
        <mxCell id="gOZiMjXKDivMsizB_Nk1-7" style="edgeStyle=orthogonalEdgeStyle;rounded=0;orthogonalLoop=1;jettySize=auto;html=1;exitX=0.5;exitY=1;exitDx=0;exitDy=0;entryX=0.5;entryY=0;entryDx=0;entryDy=0;entryPerimeter=0;" parent="1" source="kIPfcpKxW2dWIfp8FQWO-20" target="gOZiMjXKDivMsizB_Nk1-3" edge="1">
          <mxGeometry relative="1" as="geometry">
            <mxPoint x="430" y="670" as="targetPoint" />
            <Array as="points">
              <mxPoint x="744" y="670" />
              <mxPoint x="424" y="670" />
            </Array>
          </mxGeometry>
        </mxCell>
        <mxCell id="kIPfcpKxW2dWIfp8FQWO-20" value="PRINT &quot;Equal Reslult&quot;" style="shape=parallelogram;perimeter=parallelogramPerimeter;whiteSpace=wrap;html=1;fixedSize=1;" parent="1" vertex="1">
          <mxGeometry x="669" y="540" width="151" height="60" as="geometry" />
        </mxCell>
        <mxCell id="kIPfcpKxW2dWIfp8FQWO-21" value="Yes" style="text;html=1;align=center;verticalAlign=middle;resizable=0;points=[];autosize=1;strokeColor=none;fillColor=none;" parent="1" vertex="1">
          <mxGeometry x="319" y="360" width="40" height="30" as="geometry" />
        </mxCell>
        <mxCell id="kIPfcpKxW2dWIfp8FQWO-22" value="No" style="text;html=1;align=center;verticalAlign=middle;resizable=0;points=[];autosize=1;strokeColor=none;fillColor=none;" parent="1" vertex="1">
          <mxGeometry x="680" y="450" width="40" height="30" as="geometry" />
        </mxCell>
        <mxCell id="kIPfcpKxW2dWIfp8FQWO-23" value="Yes" style="text;html=1;align=center;verticalAlign=middle;resizable=0;points=[];autosize=1;strokeColor=none;fillColor=none;" parent="1" vertex="1">
          <mxGeometry x="474" y="450" width="40" height="30" as="geometry" />
        </mxCell>
        <mxCell id="kIPfcpKxW2dWIfp8FQWO-24" value="No" style="text;html=1;align=center;verticalAlign=middle;resizable=0;points=[];autosize=1;strokeColor=none;fillColor=none;" parent="1" vertex="1">
          <mxGeometry x="484" y="360" width="40" height="30" as="geometry" />
        </mxCell>
        <mxCell id="kIPfcpKxW2dWIfp8FQWO-16" value="else if product &amp;gt; sum" style="rhombus;whiteSpace=wrap;html=1;" parent="1" vertex="1">
          <mxGeometry x="540" y="430" width="120" height="90" as="geometry" />
        </mxCell>
        <mxCell id="Eb5V-pRmN2xABcDV9HnG-1" value="" style="edgeStyle=orthogonalEdgeStyle;rounded=0;orthogonalLoop=1;jettySize=auto;html=1;exitX=1;exitY=0.5;exitDx=0;exitDy=0;endArrow=none;" parent="1" source="kIPfcpKxW2dWIfp8FQWO-11" target="kIPfcpKxW2dWIfp8FQWO-16" edge="1">
          <mxGeometry relative="1" as="geometry">
            <mxPoint x="570" y="620" as="targetPoint" />
            <Array as="points" />
            <mxPoint x="464" y="450.0000000000001" as="sourcePoint" />
          </mxGeometry>
        </mxCell>
        <mxCell id="gOZiMjXKDivMsizB_Nk1-3" value="End" style="strokeWidth=2;html=1;shape=mxgraph.flowchart.terminator;whiteSpace=wrap;" parent="1" vertex="1">
          <mxGeometry x="374" y="690" width="100" height="60" as="geometry" />
        </mxCell>
      </root>
    </mxGraphModel>
  </diagram>
  <diagram name="Page-8" id="X4B-BvrWS82npQ0j-oQl">
    <mxGraphModel dx="1038" dy="571" grid="1" gridSize="10" guides="1" tooltips="1" connect="1" arrows="1" fold="1" page="1" pageScale="1" pageWidth="827" pageHeight="1169" math="0" shadow="0">
      <root>
        <mxCell id="0" />
        <mxCell id="1" parent="0" />
        <mxCell id="vCxBX5DCmqEFKc_ycruo-1" style="edgeStyle=orthogonalEdgeStyle;rounded=0;orthogonalLoop=1;jettySize=auto;html=1;exitX=0.5;exitY=1;exitDx=0;exitDy=0;exitPerimeter=0;entryX=0.5;entryY=0;entryDx=0;entryDy=0;" parent="1" source="I6-tJHJcpF-1pZYkro0C-2" target="I6-tJHJcpF-1pZYkro0C-4" edge="1">
          <mxGeometry relative="1" as="geometry" />
        </mxCell>
        <mxCell id="I6-tJHJcpF-1pZYkro0C-2" value="Start" style="strokeWidth=2;html=1;shape=mxgraph.flowchart.terminator;whiteSpace=wrap;" parent="1" vertex="1">
          <mxGeometry x="340" y="100" width="100" height="40" as="geometry" />
        </mxCell>
        <mxCell id="I6-tJHJcpF-1pZYkro0C-3" value="" style="edgeStyle=orthogonalEdgeStyle;rounded=0;orthogonalLoop=1;jettySize=auto;html=1;" parent="1" source="I6-tJHJcpF-1pZYkro0C-4" target="I6-tJHJcpF-1pZYkro0C-7" edge="1">
          <mxGeometry relative="1" as="geometry" />
        </mxCell>
        <mxCell id="I6-tJHJcpF-1pZYkro0C-4" value="INPUT num" style="shape=parallelogram;perimeter=parallelogramPerimeter;whiteSpace=wrap;html=1;fixedSize=1;strokeWidth=2;" parent="1" vertex="1">
          <mxGeometry x="330" y="170" width="120" height="60" as="geometry" />
        </mxCell>
        <mxCell id="I6-tJHJcpF-1pZYkro0C-5" style="edgeStyle=orthogonalEdgeStyle;rounded=0;orthogonalLoop=1;jettySize=auto;html=1;exitX=0;exitY=0.5;exitDx=0;exitDy=0;" parent="1" source="I6-tJHJcpF-1pZYkro0C-7" target="I6-tJHJcpF-1pZYkro0C-9" edge="1">
          <mxGeometry relative="1" as="geometry">
            <mxPoint x="280" y="330" as="targetPoint" />
            <Array as="points">
              <mxPoint x="280" y="290" />
              <mxPoint x="280" y="290" />
            </Array>
          </mxGeometry>
        </mxCell>
        <mxCell id="I6-tJHJcpF-1pZYkro0C-6" style="edgeStyle=orthogonalEdgeStyle;rounded=0;orthogonalLoop=1;jettySize=auto;html=1;exitX=1;exitY=0.5;exitDx=0;exitDy=0;" parent="1" source="I6-tJHJcpF-1pZYkro0C-7" edge="1">
          <mxGeometry relative="1" as="geometry">
            <mxPoint x="530" y="320" as="targetPoint" />
            <Array as="points">
              <mxPoint x="530" y="290" />
              <mxPoint x="530" y="290" />
            </Array>
          </mxGeometry>
        </mxCell>
        <mxCell id="I6-tJHJcpF-1pZYkro0C-7" value="if num is postive" style="rhombus;whiteSpace=wrap;html=1;strokeWidth=2;" parent="1" vertex="1">
          <mxGeometry x="325" y="250" width="130" height="80" as="geometry" />
        </mxCell>
        <mxCell id="I6-tJHJcpF-1pZYkro0C-8" style="edgeStyle=orthogonalEdgeStyle;rounded=0;orthogonalLoop=1;jettySize=auto;html=1;entryX=0.5;entryY=0;entryDx=0;entryDy=0;entryPerimeter=0;" parent="1" source="I6-tJHJcpF-1pZYkro0C-9" target="I6-tJHJcpF-1pZYkro0C-14" edge="1">
          <mxGeometry relative="1" as="geometry">
            <mxPoint x="390" y="480" as="targetPoint" />
            <Array as="points">
              <mxPoint x="280" y="480" />
              <mxPoint x="390" y="480" />
            </Array>
          </mxGeometry>
        </mxCell>
        <mxCell id="I6-tJHJcpF-1pZYkro0C-9" value="PRINT &quot;Positive&quot;" style="shape=parallelogram;html=1;strokeWidth=2;perimeter=parallelogramPerimeter;whiteSpace=wrap;rounded=1;arcSize=12;size=0.23;" parent="1" vertex="1">
          <mxGeometry x="210" y="330" width="140" height="60" as="geometry" />
        </mxCell>
        <mxCell id="I6-tJHJcpF-1pZYkro0C-10" value="Yes" style="text;html=1;align=center;verticalAlign=middle;resizable=0;points=[];autosize=1;strokeColor=none;fillColor=none;" parent="1" vertex="1">
          <mxGeometry x="280" y="265" width="40" height="30" as="geometry" />
        </mxCell>
        <mxCell id="I6-tJHJcpF-1pZYkro0C-11" value="No" style="text;html=1;align=center;verticalAlign=middle;resizable=0;points=[];autosize=1;strokeColor=none;fillColor=none;" parent="1" vertex="1">
          <mxGeometry x="450" y="265" width="40" height="30" as="geometry" />
        </mxCell>
        <mxCell id="I6-tJHJcpF-1pZYkro0C-12" style="edgeStyle=orthogonalEdgeStyle;rounded=0;orthogonalLoop=1;jettySize=auto;html=1;entryX=0.5;entryY=0;entryDx=0;entryDy=0;entryPerimeter=0;" parent="1" source="I6-tJHJcpF-1pZYkro0C-13" target="I6-tJHJcpF-1pZYkro0C-14" edge="1">
          <mxGeometry relative="1" as="geometry">
            <mxPoint x="390" y="480" as="targetPoint" />
            <Array as="points">
              <mxPoint x="530" y="480" />
              <mxPoint x="390" y="480" />
            </Array>
          </mxGeometry>
        </mxCell>
        <mxCell id="I6-tJHJcpF-1pZYkro0C-13" value="PRINT &quot;Negative&quot;" style="shape=parallelogram;perimeter=parallelogramPerimeter;whiteSpace=wrap;html=1;fixedSize=1;strokeWidth=2;" parent="1" vertex="1">
          <mxGeometry x="470" y="320" width="120" height="60" as="geometry" />
        </mxCell>
        <mxCell id="I6-tJHJcpF-1pZYkro0C-14" value="END" style="strokeWidth=2;html=1;shape=mxgraph.flowchart.terminator;whiteSpace=wrap;" parent="1" vertex="1">
          <mxGeometry x="340" y="490" width="100" height="60" as="geometry" />
        </mxCell>
        <mxCell id="I6-tJHJcpF-1pZYkro0C-15" style="edgeStyle=orthogonalEdgeStyle;rounded=0;orthogonalLoop=1;jettySize=auto;html=1;exitX=0.5;exitY=1;exitDx=0;exitDy=0;exitPerimeter=0;" parent="1" source="I6-tJHJcpF-1pZYkro0C-2" target="I6-tJHJcpF-1pZYkro0C-2" edge="1">
          <mxGeometry relative="1" as="geometry" />
        </mxCell>
      </root>
    </mxGraphModel>
  </diagram>
  <diagram name="Page-9" id="7KbaSIyWHCJXD0D1I1G_">
    <mxGraphModel dx="1038" dy="571" grid="1" gridSize="10" guides="1" tooltips="1" connect="1" arrows="1" fold="1" page="1" pageScale="1" pageWidth="827" pageHeight="1169" math="0" shadow="0">
      <root>
        <mxCell id="0" />
        <mxCell id="1" parent="0" />
        <mxCell id="nIEMDCtaPKwxDBbJRaGy-24" style="edgeStyle=orthogonalEdgeStyle;rounded=0;orthogonalLoop=1;jettySize=auto;html=1;exitX=0.5;exitY=1;exitDx=0;exitDy=0;exitPerimeter=0;entryX=0.5;entryY=0;entryDx=0;entryDy=0;" parent="1" source="nIEMDCtaPKwxDBbJRaGy-25" target="nIEMDCtaPKwxDBbJRaGy-27" edge="1">
          <mxGeometry relative="1" as="geometry" />
        </mxCell>
        <mxCell id="nIEMDCtaPKwxDBbJRaGy-25" value="Start" style="strokeWidth=2;html=1;shape=mxgraph.flowchart.terminator;whiteSpace=wrap;" parent="1" vertex="1">
          <mxGeometry x="386" y="80" width="100" height="60" as="geometry" />
        </mxCell>
        <mxCell id="KM7WtzSJsbAilfY7QLrb-12" style="edgeStyle=orthogonalEdgeStyle;rounded=0;orthogonalLoop=1;jettySize=auto;html=1;exitX=0.5;exitY=1;exitDx=0;exitDy=0;entryX=0.5;entryY=0;entryDx=0;entryDy=0;" parent="1" source="nIEMDCtaPKwxDBbJRaGy-27" target="e_mEgOOWx_zB8C5v-eph-2" edge="1">
          <mxGeometry relative="1" as="geometry" />
        </mxCell>
        <mxCell id="nIEMDCtaPKwxDBbJRaGy-27" value="INPUT CODE get cc" style="shape=parallelogram;perimeter=parallelogramPerimeter;whiteSpace=wrap;html=1;fixedSize=1;" parent="1" vertex="1">
          <mxGeometry x="368" y="180" width="136" height="30" as="geometry" />
        </mxCell>
        <mxCell id="nIEMDCtaPKwxDBbJRaGy-44" value="End" style="strokeWidth=2;html=1;shape=mxgraph.flowchart.terminator;whiteSpace=wrap;" parent="1" vertex="1">
          <mxGeometry x="386" y="540" width="100" height="60" as="geometry" />
        </mxCell>
        <mxCell id="KM7WtzSJsbAilfY7QLrb-7" value="" style="edgeStyle=orthogonalEdgeStyle;rounded=0;orthogonalLoop=1;jettySize=auto;html=1;" parent="1" source="e_mEgOOWx_zB8C5v-eph-2" target="KM7WtzSJsbAilfY7QLrb-6" edge="1">
          <mxGeometry relative="1" as="geometry" />
        </mxCell>
        <mxCell id="KM7WtzSJsbAilfY7QLrb-13" style="edgeStyle=orthogonalEdgeStyle;rounded=0;orthogonalLoop=1;jettySize=auto;html=1;exitX=1;exitY=0.5;exitDx=0;exitDy=0;" parent="1" source="e_mEgOOWx_zB8C5v-eph-2" target="KM7WtzSJsbAilfY7QLrb-3" edge="1">
          <mxGeometry relative="1" as="geometry" />
        </mxCell>
        <mxCell id="e_mEgOOWx_zB8C5v-eph-2" value="if cc &amp;gt; 417" style="rhombus;whiteSpace=wrap;html=1;" parent="1" vertex="1">
          <mxGeometry x="390" y="250" width="92" height="80" as="geometry" />
        </mxCell>
        <mxCell id="Ov_US3h4loF9L1PpOV7j-3" style="edgeStyle=orthogonalEdgeStyle;rounded=0;orthogonalLoop=1;jettySize=auto;html=1;exitX=1;exitY=0.5;exitDx=0;exitDy=0;entryX=1;entryY=0.5;entryDx=0;entryDy=0;entryPerimeter=0;" parent="1" source="KM7WtzSJsbAilfY7QLrb-3" target="nIEMDCtaPKwxDBbJRaGy-44" edge="1">
          <mxGeometry relative="1" as="geometry">
            <mxPoint x="750" y="580" as="targetPoint" />
            <Array as="points">
              <mxPoint x="750" y="290" />
              <mxPoint x="750" y="570" />
            </Array>
          </mxGeometry>
        </mxCell>
        <mxCell id="KM7WtzSJsbAilfY7QLrb-3" value="PRINT &quot;High Code&quot;" style="shape=parallelogram;perimeter=parallelogramPerimeter;whiteSpace=wrap;html=1;fixedSize=1;" parent="1" vertex="1">
          <mxGeometry x="542" y="275" width="178" height="30" as="geometry" />
        </mxCell>
        <mxCell id="KM7WtzSJsbAilfY7QLrb-4" value="Yes" style="text;html=1;align=center;verticalAlign=middle;resizable=0;points=[];autosize=1;strokeColor=none;fillColor=none;" parent="1" vertex="1">
          <mxGeometry x="492" y="270" width="40" height="30" as="geometry" />
        </mxCell>
        <mxCell id="KM7WtzSJsbAilfY7QLrb-9" style="edgeStyle=orthogonalEdgeStyle;rounded=0;orthogonalLoop=1;jettySize=auto;html=1;exitX=1;exitY=0.5;exitDx=0;exitDy=0;entryX=0;entryY=0.5;entryDx=0;entryDy=0;" parent="1" source="KM7WtzSJsbAilfY7QLrb-6" target="KM7WtzSJsbAilfY7QLrb-8" edge="1">
          <mxGeometry relative="1" as="geometry" />
        </mxCell>
        <mxCell id="jhFVy_3qGIeeLBqh_zhY-1" style="edgeStyle=orthogonalEdgeStyle;rounded=0;orthogonalLoop=1;jettySize=auto;html=1;exitX=0.5;exitY=1;exitDx=0;exitDy=0;" edge="1" parent="1" source="KM7WtzSJsbAilfY7QLrb-6" target="Ov_US3h4loF9L1PpOV7j-2">
          <mxGeometry relative="1" as="geometry" />
        </mxCell>
        <mxCell id="KM7WtzSJsbAilfY7QLrb-6" value="else if cc &amp;lt; 417" style="rhombus;whiteSpace=wrap;html=1;" parent="1" vertex="1">
          <mxGeometry x="390" y="370" width="92" height="80" as="geometry" />
        </mxCell>
        <mxCell id="sge4YXqwJGwPpcotH2i_-7" style="edgeStyle=orthogonalEdgeStyle;rounded=0;orthogonalLoop=1;jettySize=auto;html=1;exitX=1;exitY=0.5;exitDx=0;exitDy=0;" parent="1" source="KM7WtzSJsbAilfY7QLrb-8" edge="1">
          <mxGeometry relative="1" as="geometry">
            <mxPoint x="750" y="410" as="targetPoint" />
          </mxGeometry>
        </mxCell>
        <mxCell id="KM7WtzSJsbAilfY7QLrb-8" value="PRINT &quot;Low Code&quot;" style="shape=parallelogram;perimeter=parallelogramPerimeter;whiteSpace=wrap;html=1;fixedSize=1;" parent="1" vertex="1">
          <mxGeometry x="532" y="395" width="178" height="30" as="geometry" />
        </mxCell>
        <mxCell id="KM7WtzSJsbAilfY7QLrb-10" value="Yes" style="text;html=1;align=center;verticalAlign=middle;resizable=0;points=[];autosize=1;strokeColor=none;fillColor=none;" parent="1" vertex="1">
          <mxGeometry x="492" y="390" width="40" height="30" as="geometry" />
        </mxCell>
        <mxCell id="KM7WtzSJsbAilfY7QLrb-11" value="No" style="text;html=1;align=center;verticalAlign=middle;resizable=0;points=[];autosize=1;strokeColor=none;fillColor=none;" parent="1" vertex="1">
          <mxGeometry x="410" y="330" width="40" height="30" as="geometry" />
        </mxCell>
        <mxCell id="sge4YXqwJGwPpcotH2i_-4" value="No" style="text;html=1;align=center;verticalAlign=middle;resizable=0;points=[];autosize=1;strokeColor=none;fillColor=none;" parent="1" vertex="1">
          <mxGeometry x="410" y="450" width="40" height="30" as="geometry" />
        </mxCell>
        <mxCell id="Ov_US3h4loF9L1PpOV7j-5" style="edgeStyle=orthogonalEdgeStyle;rounded=0;orthogonalLoop=1;jettySize=auto;html=1;exitX=0.5;exitY=1;exitDx=0;exitDy=0;entryX=0.5;entryY=0;entryDx=0;entryDy=0;entryPerimeter=0;" parent="1" source="Ov_US3h4loF9L1PpOV7j-2" target="nIEMDCtaPKwxDBbJRaGy-44" edge="1">
          <mxGeometry relative="1" as="geometry" />
        </mxCell>
        <mxCell id="Ov_US3h4loF9L1PpOV7j-2" value="PRINT &quot;Congratulations&quot;" style="shape=parallelogram;perimeter=parallelogramPerimeter;whiteSpace=wrap;html=1;fixedSize=1;" parent="1" vertex="1">
          <mxGeometry x="347" y="490" width="178" height="30" as="geometry" />
        </mxCell>
      </root>
    </mxGraphModel>
  </diagram>
  <diagram name="Page-10" id="Yi8UMaejSlS6tBX9mIy8">
    <mxGraphModel dx="1038" dy="571" grid="1" gridSize="10" guides="1" tooltips="1" connect="1" arrows="1" fold="1" page="1" pageScale="1" pageWidth="827" pageHeight="1169" math="0" shadow="0">
      <root>
        <mxCell id="0" />
        <mxCell id="1" parent="0" />
        <mxCell id="HT_kRKgchhNRKeM4DevZ-3" value="" style="edgeStyle=orthogonalEdgeStyle;rounded=0;orthogonalLoop=1;jettySize=auto;html=1;" parent="1" source="HT_kRKgchhNRKeM4DevZ-1" target="HT_kRKgchhNRKeM4DevZ-2" edge="1">
          <mxGeometry relative="1" as="geometry" />
        </mxCell>
        <mxCell id="HT_kRKgchhNRKeM4DevZ-1" value="Start" style="strokeWidth=2;html=1;shape=mxgraph.flowchart.terminator;whiteSpace=wrap;" parent="1" vertex="1">
          <mxGeometry x="364" y="110" width="100" height="40" as="geometry" />
        </mxCell>
        <mxCell id="HT_kRKgchhNRKeM4DevZ-5" value="" style="edgeStyle=orthogonalEdgeStyle;rounded=0;orthogonalLoop=1;jettySize=auto;html=1;" parent="1" source="HT_kRKgchhNRKeM4DevZ-2" target="HT_kRKgchhNRKeM4DevZ-4" edge="1">
          <mxGeometry relative="1" as="geometry" />
        </mxCell>
        <mxCell id="HT_kRKgchhNRKeM4DevZ-2" value="INPUT f" style="shape=parallelogram;perimeter=parallelogramPerimeter;whiteSpace=wrap;html=1;fixedSize=1;strokeWidth=2;" parent="1" vertex="1">
          <mxGeometry x="354" y="180" width="120" height="30" as="geometry" />
        </mxCell>
        <mxCell id="HT_kRKgchhNRKeM4DevZ-7" value="" style="edgeStyle=orthogonalEdgeStyle;rounded=0;orthogonalLoop=1;jettySize=auto;html=1;" parent="1" source="HT_kRKgchhNRKeM4DevZ-4" edge="1">
          <mxGeometry relative="1" as="geometry">
            <mxPoint x="414" y="320" as="targetPoint" />
          </mxGeometry>
        </mxCell>
        <mxCell id="HT_kRKgchhNRKeM4DevZ-4" value="c = (f - 40) * (5 /9)" style="rounded=1;whiteSpace=wrap;html=1;strokeWidth=2;" parent="1" vertex="1">
          <mxGeometry x="354" y="240" width="120" height="50" as="geometry" />
        </mxCell>
        <mxCell id="HT_kRKgchhNRKeM4DevZ-11" style="edgeStyle=orthogonalEdgeStyle;rounded=0;orthogonalLoop=1;jettySize=auto;html=1;exitX=0.5;exitY=1;exitDx=0;exitDy=0;entryX=0.5;entryY=0;entryDx=0;entryDy=0;entryPerimeter=0;" parent="1" source="HT_kRKgchhNRKeM4DevZ-8" target="HT_kRKgchhNRKeM4DevZ-10" edge="1">
          <mxGeometry relative="1" as="geometry" />
        </mxCell>
        <mxCell id="HT_kRKgchhNRKeM4DevZ-8" value="PRINT c" style="shape=parallelogram;perimeter=parallelogramPerimeter;whiteSpace=wrap;html=1;fixedSize=1;strokeWidth=2;" parent="1" vertex="1">
          <mxGeometry x="354" y="320" width="120" height="30" as="geometry" />
        </mxCell>
        <mxCell id="HT_kRKgchhNRKeM4DevZ-10" value="End" style="strokeWidth=2;html=1;shape=mxgraph.flowchart.terminator;whiteSpace=wrap;" parent="1" vertex="1">
          <mxGeometry x="364" y="380" width="100" height="40" as="geometry" />
        </mxCell>
      </root>
    </mxGraphModel>
  </diagram>
  <diagram name="Page-11" id="Q_2ommIcsex7WRlbDnyl">
    <mxGraphModel dx="1038" dy="1740" grid="1" gridSize="10" guides="1" tooltips="1" connect="1" arrows="1" fold="1" page="1" pageScale="1" pageWidth="827" pageHeight="1169" math="0" shadow="0">
      <root>
        <mxCell id="0" />
        <mxCell id="1" parent="0" />
        <mxCell id="kweR6bNzEYgIhNfixwnu-23" style="edgeStyle=orthogonalEdgeStyle;rounded=0;orthogonalLoop=1;jettySize=auto;html=1;fontSize=12;" parent="1" source="kweR6bNzEYgIhNfixwnu-1" target="kweR6bNzEYgIhNfixwnu-22" edge="1">
          <mxGeometry relative="1" as="geometry" />
        </mxCell>
        <mxCell id="kweR6bNzEYgIhNfixwnu-1" value="Start" style="strokeWidth=2;html=1;shape=mxgraph.flowchart.terminator;whiteSpace=wrap;" parent="1" vertex="1">
          <mxGeometry x="365" y="-10" width="100" height="40" as="geometry" />
        </mxCell>
        <mxCell id="kweR6bNzEYgIhNfixwnu-8" value="" style="edgeStyle=orthogonalEdgeStyle;rounded=0;orthogonalLoop=1;jettySize=auto;html=1;" parent="1" source="kweR6bNzEYgIhNfixwnu-6" edge="1">
          <mxGeometry relative="1" as="geometry">
            <mxPoint x="414" y="200" as="targetPoint" />
          </mxGeometry>
        </mxCell>
        <mxCell id="kweR6bNzEYgIhNfixwnu-6" value="Wake up" style="rounded=0;whiteSpace=wrap;html=1;" parent="1" vertex="1">
          <mxGeometry x="354" y="110" width="120" height="60" as="geometry" />
        </mxCell>
        <mxCell id="kweR6bNzEYgIhNfixwnu-11" value="" style="edgeStyle=orthogonalEdgeStyle;rounded=0;orthogonalLoop=1;jettySize=auto;html=1;" parent="1" source="kweR6bNzEYgIhNfixwnu-9" target="kweR6bNzEYgIhNfixwnu-10" edge="1">
          <mxGeometry relative="1" as="geometry" />
        </mxCell>
        <mxCell id="kweR6bNzEYgIhNfixwnu-9" value="Eat breakfast" style="rounded=0;whiteSpace=wrap;html=1;" parent="1" vertex="1">
          <mxGeometry x="354" y="200" width="120" height="60" as="geometry" />
        </mxCell>
        <mxCell id="kweR6bNzEYgIhNfixwnu-13" value="" style="edgeStyle=orthogonalEdgeStyle;rounded=0;orthogonalLoop=1;jettySize=auto;html=1;" parent="1" source="kweR6bNzEYgIhNfixwnu-10" target="kweR6bNzEYgIhNfixwnu-12" edge="1">
          <mxGeometry relative="1" as="geometry" />
        </mxCell>
        <mxCell id="kweR6bNzEYgIhNfixwnu-10" value="Take Bath" style="rounded=0;whiteSpace=wrap;html=1;" parent="1" vertex="1">
          <mxGeometry x="354" y="290" width="120" height="60" as="geometry" />
        </mxCell>
        <mxCell id="kweR6bNzEYgIhNfixwnu-15" value="" style="edgeStyle=orthogonalEdgeStyle;rounded=0;orthogonalLoop=1;jettySize=auto;html=1;" parent="1" source="kweR6bNzEYgIhNfixwnu-12" target="kweR6bNzEYgIhNfixwnu-14" edge="1">
          <mxGeometry relative="1" as="geometry" />
        </mxCell>
        <mxCell id="kweR6bNzEYgIhNfixwnu-12" value="Brush Teeth" style="rounded=0;whiteSpace=wrap;html=1;" parent="1" vertex="1">
          <mxGeometry x="354" y="380" width="120" height="60" as="geometry" />
        </mxCell>
        <mxCell id="kweR6bNzEYgIhNfixwnu-17" value="" style="edgeStyle=orthogonalEdgeStyle;rounded=0;orthogonalLoop=1;jettySize=auto;html=1;" parent="1" source="kweR6bNzEYgIhNfixwnu-14" target="kweR6bNzEYgIhNfixwnu-16" edge="1">
          <mxGeometry relative="1" as="geometry" />
        </mxCell>
        <mxCell id="kweR6bNzEYgIhNfixwnu-14" value="Wear Clothes" style="rounded=0;whiteSpace=wrap;html=1;" parent="1" vertex="1">
          <mxGeometry x="354" y="460" width="120" height="60" as="geometry" />
        </mxCell>
        <mxCell id="kweR6bNzEYgIhNfixwnu-19" value="" style="edgeStyle=orthogonalEdgeStyle;rounded=0;orthogonalLoop=1;jettySize=auto;html=1;" parent="1" source="kweR6bNzEYgIhNfixwnu-16" target="kweR6bNzEYgIhNfixwnu-18" edge="1">
          <mxGeometry relative="1" as="geometry" />
        </mxCell>
        <mxCell id="kweR6bNzEYgIhNfixwnu-16" value="Walk to Jeep Terminal" style="rounded=0;whiteSpace=wrap;html=1;" parent="1" vertex="1">
          <mxGeometry x="354" y="540" width="120" height="60" as="geometry" />
        </mxCell>
        <mxCell id="kweR6bNzEYgIhNfixwnu-21" value="" style="edgeStyle=orthogonalEdgeStyle;rounded=0;orthogonalLoop=1;jettySize=auto;html=1;fontSize=12;" parent="1" source="kweR6bNzEYgIhNfixwnu-18" target="kweR6bNzEYgIhNfixwnu-20" edge="1">
          <mxGeometry relative="1" as="geometry" />
        </mxCell>
        <mxCell id="kweR6bNzEYgIhNfixwnu-18" value="Ride a Jeep From Frisco to Espa&lt;span style=&quot;color: rgb(51, 51, 51); font-family: Roboto, Helvetica, Arial, sans-serif; text-align: start; background-color: rgb(255, 255, 255);&quot;&gt;&lt;font style=&quot;font-size: 12px;&quot;&gt;ña&lt;/font&gt;&lt;/span&gt;" style="rounded=0;whiteSpace=wrap;html=1;" parent="1" vertex="1">
          <mxGeometry x="354" y="620" width="120" height="60" as="geometry" />
        </mxCell>
        <mxCell id="kweR6bNzEYgIhNfixwnu-27" value="" style="edgeStyle=orthogonalEdgeStyle;rounded=0;orthogonalLoop=1;jettySize=auto;html=1;fontSize=12;" parent="1" source="kweR6bNzEYgIhNfixwnu-20" target="kweR6bNzEYgIhNfixwnu-26" edge="1">
          <mxGeometry relative="1" as="geometry" />
        </mxCell>
        <mxCell id="kweR6bNzEYgIhNfixwnu-20" value="Walk From Espa&lt;span style=&quot;color: rgb(51, 51, 51); font-family: Roboto, Helvetica, Arial, sans-serif; text-align: start; background-color: rgb(255, 255, 255);&quot;&gt;ña to NU manila&lt;/span&gt;" style="rounded=0;whiteSpace=wrap;html=1;" parent="1" vertex="1">
          <mxGeometry x="354" y="700" width="120" height="60" as="geometry" />
        </mxCell>
        <mxCell id="kweR6bNzEYgIhNfixwnu-25" style="edgeStyle=orthogonalEdgeStyle;rounded=0;orthogonalLoop=1;jettySize=auto;html=1;exitX=0.5;exitY=1;exitDx=0;exitDy=0;entryX=0.5;entryY=0;entryDx=0;entryDy=0;fontSize=12;" parent="1" source="kweR6bNzEYgIhNfixwnu-22" target="kweR6bNzEYgIhNfixwnu-6" edge="1">
          <mxGeometry relative="1" as="geometry" />
        </mxCell>
        <mxCell id="kweR6bNzEYgIhNfixwnu-22" value="INPUT &quot;My weekly Routine&quot;" style="shape=parallelogram;perimeter=parallelogramPerimeter;whiteSpace=wrap;html=1;fixedSize=1;fontSize=12;" parent="1" vertex="1">
          <mxGeometry x="340" y="60" width="150" height="30" as="geometry" />
        </mxCell>
        <mxCell id="kweR6bNzEYgIhNfixwnu-29" style="edgeStyle=orthogonalEdgeStyle;rounded=0;orthogonalLoop=1;jettySize=auto;html=1;exitX=0.5;exitY=1;exitDx=0;exitDy=0;fontSize=12;" parent="1" source="kweR6bNzEYgIhNfixwnu-26" target="kweR6bNzEYgIhNfixwnu-28" edge="1">
          <mxGeometry relative="1" as="geometry" />
        </mxCell>
        <mxCell id="kweR6bNzEYgIhNfixwnu-26" value="PRINT &quot;Arrived at NU&quot;" style="shape=parallelogram;perimeter=parallelogramPerimeter;whiteSpace=wrap;html=1;fixedSize=1;rounded=0;" parent="1" vertex="1">
          <mxGeometry x="322" y="790" width="184" height="30" as="geometry" />
        </mxCell>
        <mxCell id="kweR6bNzEYgIhNfixwnu-28" value="End" style="strokeWidth=2;html=1;shape=mxgraph.flowchart.terminator;whiteSpace=wrap;" parent="1" vertex="1">
          <mxGeometry x="365" y="850" width="100" height="40" as="geometry" />
        </mxCell>
      </root>
    </mxGraphModel>
  </diagram>
</mxfile>
